<?xml version="1.0" encoding="iso-8859-1"?>
<!-- Generator: Adobe Illustrator 19.0.0, SVG Export Plug-In . SVG Version: 6.00 Build 0)  -->
<svg version="1.1" id="Capa_1" xmlns="http://www.w3.org/2000/svg" xmlns:xlink="http://www.w3.org/1999/xlink" x="0px" y="0px"
	 viewBox="0 0 480 480" style="enable-background:new 0 0 480 480;" xml:space="preserve">
<path style="fill:#06AAE9;" d="M376.96,334.859H103.04c-52.489,0-95.04-42.551-95.04-95.04v-1.92c0-52.489,42.551-95.04,95.04-95.04
	h273.92c52.489,0,95.04,42.551,95.04,95.04v1.92C472,292.309,429.449,334.859,376.96,334.859z"/>
<path style="fill:#FFFF00;" d="M248.961,302.859v-47.074l-21.648,21.648L216,266.121l29.648-29.652L216,206.82l11.313-11.313
	l21.648,21.648v-47.074l42.852,42.852l-23.535,23.535l23.535,23.539L248.961,302.859z M264.961,255.781v8.453l4.227-4.227
	L264.961,255.781z M264.961,208.707v8.453l4.227-4.227L264.961,208.707z"/>
<path id="SVGCleanerId_0" style="fill:#06AAE9;" d="M270.766,69.209c-18.781-10.133-42.75-10.133-61.531,0l-7.602-14.078
	c23.438-12.648,53.297-12.648,76.734,0L270.766,69.209z"/>
<g>
	<path style="fill:#06AAE9;" d="M285.395,42.045c-27.727-14.961-63.063-14.961-90.789,0l-7.602-14.078
		c32.383-17.477,73.609-17.477,105.992,0L285.395,42.045z"/>
	<path style="fill:#06AAE9;" d="M255.863,96.889c-10.273-5.547-21.453-5.547-31.727,0l-7.602-14.078c15-8.102,31.93-8.102,46.93,0
		L255.863,96.889z"/>
</g>
<g>
	<path id="SVGCleanerId_0_1_" style="fill:#06AAE9;" d="M270.766,69.209c-18.781-10.133-42.75-10.133-61.531,0l-7.602-14.078
		c23.438-12.648,53.297-12.648,76.734,0L270.766,69.209z"/>
</g>
<path id="SVGCleanerId_1" style="fill:#06AAE9;" d="M243.008,434.289c-13.375,0-26.645-3.344-38.367-9.672l7.602-14.078
	c18.789,10.141,42.742,10.141,61.531,0l7.602,14.078C269.652,430.945,256.383,434.289,243.008,434.289z"/>
<g>
	<path style="fill:#06AAE9;" d="M243.008,465.141c-18.477,0-36.801-4.617-52.992-13.355l7.594-14.078
		c27.734,14.961,63.063,14.961,90.797,0L296,451.785C279.809,460.523,261.484,465.141,243.008,465.141z"/>
	<path style="fill:#06AAE9;" d="M243.008,403.043c-8.066,0-15.961-2.055-23.465-6.105l7.602-14.078
		c10.289,5.555,21.438,5.555,31.727,0l7.602,14.078C258.969,400.988,251.074,403.043,243.008,403.043z"/>
</g>
<g>
	<path id="SVGCleanerId_1_1_" style="fill:#06AAE9;" d="M243.008,434.289c-13.375,0-26.645-3.344-38.367-9.672l7.602-14.078
		c18.789,10.141,42.742,10.141,61.531,0l7.602,14.078C269.652,430.945,256.383,434.289,243.008,434.289z"/>
</g>
<g>
	<circle style="fill:#FFFF00;" cx="120" cy="246.859" r="72"/>
	<circle style="fill:#FFFF00;" cx="360" cy="246.859" r="72"/>
</g>
<g>
	<path style="fill:#FF1D25;" d="M104,166.859c-39.699,0-72,32.301-72,72s32.301,72,72,72s72-32.301,72-72
		S143.699,166.859,104,166.859z M152,227.547l-12.688-12.688l9.475-9.475c3.752,5.008,6.732,10.625,8.649,16.726L152,227.547z
		 M92.688,238.859L80,251.547l-12.688-12.688L80,226.172L92.688,238.859z M91.313,214.859L104,202.172l12.688,12.688L104,227.547
		L91.313,214.859z M104,250.172l12.688,12.688L104,275.547l-12.688-12.688L104,250.172z M115.313,238.859L128,226.172l12.688,12.688
		L128,251.547L115.313,238.859z M128,203.547l-12.688-12.688l5.436-5.436c6.101,1.917,11.718,4.896,16.726,8.649L128,203.547z
		 M92.688,190.859L80,203.547l-9.475-9.475c5.008-3.752,10.625-6.732,16.726-8.649L92.688,190.859z M68.688,214.859L56,227.547
		l-5.436-5.436c1.917-6.101,4.896-11.718,8.649-16.726L68.688,214.859z M56,250.172l12.688,12.688l-9.475,9.475
		c-3.752-5.008-6.732-10.625-8.649-16.726L56,250.172z M80,274.172l12.688,12.688l-5.436,5.436
		c-6.101-1.917-11.718-4.896-16.726-8.649L80,274.172z M115.313,286.859L128,274.172l9.475,9.475
		c-5.008,3.752-10.625,6.732-16.726,8.649L115.313,286.859z M139.313,262.859L152,250.172l5.436,5.436
		c-1.917,6.101-4.896,11.718-8.649,16.726L139.313,262.859z"/>
	<path style="fill:#FF1D25;" d="M376,166.859c-39.699,0-72,32.301-72,72s32.301,72,72,72s72-32.301,72-72
		S415.699,166.859,376,166.859z M424,227.547l-12.688-12.688l9.475-9.475c3.752,5.008,6.732,10.625,8.649,16.726L424,227.547z
		 M364.688,238.859L352,251.547l-12.688-12.688L352,226.172L364.688,238.859z M363.313,214.859L376,202.172l12.688,12.688
		L376,227.547L363.313,214.859z M376,250.172l12.688,12.688L376,275.547l-12.688-12.688L376,250.172z M387.313,238.859L400,226.172
		l12.688,12.688L400,251.547L387.313,238.859z M400,203.547l-12.688-12.688l5.436-5.436c6.101,1.917,11.718,4.896,16.726,8.649
		L400,203.547z M364.688,190.859L352,203.547l-9.475-9.475c5.008-3.752,10.625-6.732,16.726-8.649L364.688,190.859z
		 M340.688,214.859L328,227.547l-5.436-5.436c1.917-6.101,4.896-11.718,8.649-16.726L340.688,214.859z M328,250.172l12.688,12.688
		l-9.475,9.475c-3.752-5.008-6.732-10.625-8.649-16.726L328,250.172z M352,274.172l12.688,12.688l-5.436,5.436
		c-6.101-1.917-11.718-4.896-16.726-8.649L352,274.172z M387.313,286.859L400,274.172l9.475,9.475
		c-5.008,3.752-10.625,6.732-16.726,8.649L387.313,286.859z M411.313,262.859L424,250.172l5.436,5.436
		c-1.917,6.101-4.896,11.718-8.649,16.726L411.313,262.859z"/>
</g>
<g>
	<path style="fill:#29485A;" d="M376,166.859c-39.699,0-72,32.301-72,72s32.301,72,72,72s72-32.301,72-72
		S415.699,166.859,376,166.859z M376,250.172l12.688,12.688L376,275.547l-12.688-12.688L376,250.172z M352,251.547l-12.688-12.688
		L352,226.172l12.688,12.688L352,251.547z M387.313,238.859L400,226.172l12.688,12.688L400,251.547L387.313,238.859z M376,227.547
		l-12.688-12.688L376,202.172l12.688,12.688L376,227.547z M387.313,190.859l5.436-5.436c6.101,1.917,11.718,4.896,16.726,8.649
		L400,203.547L387.313,190.859z M364.688,190.859L352,203.547l-9.475-9.475c5.008-3.752,10.625-6.732,16.726-8.649L364.688,190.859z
		 M340.688,214.859L328,227.547l-5.436-5.436c1.917-6.101,4.896-11.718,8.649-16.726L340.688,214.859z M328,250.172l12.688,12.688
		l-9.475,9.475c-3.752-5.008-6.732-10.625-8.649-16.726L328,250.172z M352,274.172l12.688,12.688l-5.436,5.436
		c-6.101-1.917-11.718-4.896-16.726-8.649L352,274.172z M387.313,286.859L400,274.172l9.475,9.475
		c-5.008,3.752-10.625,6.732-16.726,8.649L387.313,286.859z M411.313,262.859L424,250.172l5.436,5.436
		c-1.917,6.101-4.896,11.718-8.649,16.726L411.313,262.859z M424,227.547l-12.688-12.688l9.475-9.475
		c3.752,5.008,6.732,10.625,8.649,16.726L424,227.547z"/>
	<path style="fill:#29485A;" d="M376.961,134.859H103.039C46.223,134.859,0,181.082,0,237.898v1.922
		c0,56.816,46.223,103.039,103.039,103.039h273.922C433.777,342.859,480,296.637,480,239.82v-1.922
		C480,181.082,433.777,134.859,376.961,134.859z M464,239.82c0,47.992-39.047,87.039-87.039,87.039H103.039
		C55.047,326.859,16,287.813,16,239.82v-1.922c0-47.992,39.047-87.039,87.039-87.039h273.922c47.992,0,87.039,39.047,87.039,87.039
		V239.82z"/>
	<path style="fill:#29485A;" d="M232,171.547v47.074l-21.648-21.648l-11.313,11.313l29.648,29.648l-29.648,29.652l11.313,11.313
		L232,257.25v47.074l42.852-42.852l-23.535-23.539l23.535-23.535L232,171.547z M252.227,261.473L248,265.699v-8.453L252.227,261.473
		z M248,218.625v-8.453l4.227,4.227L248,218.625z"/>
	<path style="fill:#29485A;" d="M104,166.859c-39.699,0-72,32.301-72,72s32.301,72,72,72s72-32.301,72-72
		S143.699,166.859,104,166.859z M104,250.172l12.688,12.688L104,275.547l-12.688-12.688L104,250.172z M80,251.547l-12.688-12.688
		L80,226.172l12.688,12.688L80,251.547z M115.313,238.859L128,226.172l12.688,12.688L128,251.547L115.313,238.859z M104,227.547
		l-12.688-12.688L104,202.172l12.688,12.688L104,227.547z M115.313,190.859l5.436-5.436c6.101,1.917,11.718,4.896,16.726,8.649
		L128,203.547L115.313,190.859z M92.688,190.859L80,203.547l-9.475-9.475c5.008-3.752,10.625-6.732,16.726-8.649L92.688,190.859z
		 M68.688,214.859L56,227.547l-5.436-5.436c1.917-6.101,4.896-11.718,8.649-16.726L68.688,214.859z M56,250.172l12.688,12.688
		l-9.475,9.475c-3.752-5.008-6.732-10.625-8.649-16.726L56,250.172z M80,274.172l12.688,12.688l-5.436,5.436
		c-6.101-1.917-11.718-4.896-16.726-8.649L80,274.172z M115.313,286.859L128,274.172l9.475,9.475
		c-5.008,3.752-10.625,6.732-16.726,8.649L115.313,286.859z M139.313,262.859L152,250.172l5.436,5.436
		c-1.917,6.101-4.896,11.718-8.649,16.726L139.313,262.859z M152,227.547l-12.688-12.688l9.475-9.475
		c3.752,5.008,6.732,10.625,8.649,16.726L152,227.547z"/>
	<path style="fill:#29485A;" d="M285.395,50.297l7.602-14.078c-32.383-17.477-73.609-17.477-105.992,0l7.602,14.078
		C222.332,35.336,257.668,35.336,285.395,50.297z"/>
	<path style="fill:#29485A;" d="M216.535,91.063l7.602,14.078c10.273-5.547,21.453-5.547,31.727,0l7.602-14.078
		C248.465,82.961,231.535,82.961,216.535,91.063z"/>
	<path style="fill:#29485A;" d="M278.367,63.383c-23.438-12.648-53.297-12.648-76.734,0l7.602,14.078
		c18.781-10.133,42.75-10.133,61.531,0L278.367,63.383z"/>
	<path style="fill:#29485A;" d="M194.602,430.668l-7.594,14.078c16.191,8.738,34.516,13.355,52.992,13.355
		s36.801-4.617,52.992-13.355l-7.594-14.078C257.664,445.629,222.336,445.629,194.602,430.668z"/>
	<path style="fill:#29485A;" d="M263.465,389.898l-7.602-14.078c-10.289,5.555-21.438,5.555-31.727,0l-7.602,14.078
		c7.504,4.051,15.398,6.105,23.465,6.105S255.961,393.949,263.465,389.898z"/>
	<path style="fill:#29485A;" d="M201.633,417.578c11.723,6.328,24.992,9.672,38.367,9.672s26.645-3.344,38.367-9.672l-7.602-14.078
		c-18.789,10.141-42.742,10.141-61.531,0L201.633,417.578z"/>
</g>
<g>
</g>
<g>
</g>
<g>
</g>
<g>
</g>
<g>
</g>
<g>
</g>
<g>
</g>
<g>
</g>
<g>
</g>
<g>
</g>
<g>
</g>
<g>
</g>
<g>
</g>
<g>
</g>
<g>
</g>
</svg>
