<svg xmlns="http://www.w3.org/2000/svg" xmlns:xlink="http://www.w3.org/1999/xlink" viewBox="0 0 86 151" fill="#fff" fill-rule="evenodd" stroke="#000" stroke-linecap="round" stroke-linejoin="round"><use xlink:href="#A" x=".5" y=".5"/><symbol id="A" overflow="visible"><rect fill="#eceff1" height="150" rx="3" width="85"/><rect fill="#546e7a" height="102" rx="3" width="85" y="47"/><path d="M65.251 31.193a.78.78 0 0 1-.076-.641c.306-.958 1.158-3.948 1.158-7.525a26 26 0 0 0-1.158-7.526.78.78 0 0 1 .076-.641l.596-1.041c.291-.509.015-1.071-.691-1.405-.697-.329-1.663-.365-2.422-.089a3.37 3.37 0 0 1-1.892.088c-1.871-.462-6.897-1.361-17.676-1.361s-15.805.899-17.676 1.361a3.37 3.37 0 0 1-1.892-.088c-.759-.276-1.725-.24-2.422.089-.705.333-.982.896-.691 1.405l.596 1.041c.118.206.144.427.076.641A26 26 0 0 0 20 23.026c0 3.577.852 6.568 1.158 7.525a.78.78 0 0 1-.076.641l-.596 1.041c-.291.508-.014 1.071.691 1.405a3.34 3.34 0 0 0 2.422.089 3.37 3.37 0 0 1 1.892-.088C27.362 34.101 32.388 35 43.167 35s15.805-.899 17.676-1.361a3.37 3.37 0 0 1 1.892.088 3.34 3.34 0 0 0 2.422-.089c.705-.333.982-.896.691-1.405zm0 0"/><path fill="#90a4ae" d="M0 120h85v30H0z"/></symbol></svg>